PathFileType	4	(X/Y/Z)	Kaydara	
DataRate	CameraRate	NumFrames	NumMarkers	Units	OrigDataRate	OrigDataStartFrame	OrigNumFrames	
60.00	60.00	4	74	mm	60.00	2751	161	
Frame#	Time	Z_lasi			Z_rasi			Z_rpsi			Z_lpsi			Z_fneck			Z_bneck			Z_fhead			Z_rhead			Z_lhead			Z_rshld			Z_relbtop			Z_relbext			Z_relblow			Z_rwrext			Z_rwrtop			Z_rwrlow			Z_lshld			Z_lelbext			Z_lelblow			Z_lelbtop			Z_lwrext			Z_lwrtop			Z_rtopleg			Z_ltopleg			Z_rkneefr			Z_rkneebk			Z_rkneeis			Z_lkneefr			Z_lknssbk			Z_lkneeis			Z_rankfr			Z_rankis			Z_rankbk			Z_lankfr			Z_lankbk			Z_lankis			A_lasi			A_rasi			A_rpsi			A_lpsi			A_fneck			A_bneck			A_fhead			A_rhead			A_lhead			A_rshld			A_relbtop			A_relbext			A_relblow			A_rwrext			A_rwrtop			A_rwrlow			A_lshld			A_lelbext			A_lelblow			A_lelbtop			A_lwrext			A_lwrtop			A_lwrlow			A_rtopleg			A_ltopleg			A_rkneefr			A_rkneebk			A_rkneeis			A_lkneefr			A_lknssbk			A_lkneeis			A_rankfr			A_rankis			A_rankbk			A_lankfr			A_lankbk			A_lankis			Z_lwrlow			
		X1	Y1	Z1	X2	Y2	Z2	X3	Y3	Z3	X4	Y4	Z4	X5	Y5	Z5	X6	Y6	Z6	X7	Y7	Z7	X8	Y8	Z8	X9	Y9	Z9	X10	Y10	Z10	X11	Y11	Z11	X12	Y12	Z12	X13	Y13	Z13	X14	Y14	Z14	X15	Y15	Z15	X16	Y16	Z16	X17	Y17	Z17	X18	Y18	Z18	X19	Y19	Z19	X20	Y20	Z20	X21	Y21	Z21	X22	Y22	Z22	X23	Y23	Z23	X24	Y24	Z24	X25	Y25	Z25	X26	Y26	Z26	X27	Y27	Z27	X28	Y28	Z28	X29	Y29	Z29	X30	Y30	Z30	X31	Y31	Z31	X32	Y32	Z32	X33	Y33	Z33	X34	Y34	Z34	X35	Y35	Z35	X36	Y36	Z36	X37	Y37	Z37	X38	Y38	Z38	X39	Y39	Z39	X40	Y40	Z40	X41	Y41	Z41	X42	Y42	Z42	X43	Y43	Z43	X44	Y44	Z44	X45	Y45	Z45	X46	Y46	Z46	X47	Y47	Z47	X48	Y48	Z48	X49	Y49	Z49	X50	Y50	Z50	X51	Y51	Z51	X52	Y52	Z52	X53	Y53	Z53	X54	Y54	Z54	X55	Y55	Z55	X56	Y56	Z56	X57	Y57	Z57	X58	Y58	Z58	X59	Y59	Z59	X60	Y60	Z60	X61	Y61	Z61	X62	Y62	Z62	X63	Y63	Z63	X64	Y64	Z64	X65	Y65	Z65	X66	Y66	Z66	X67	Y67	Z67	X68	Y68	Z68	X69	Y69	Z69	X70	Y70	Z70	X71	Y71	Z71	X72	Y72	Z72	X73	Y73	Z73	X74	Y74	Z74	

141	45.833	-740.13954	1076.13159	-95.48637	-776.80946	1051.85318	109.96800	-959.33807	1115.32974	122.05782	-922.72957	1142.46284	-120.41726	-674.75945	1367.90863	90.09770	-738.56857	1482.95776	81.14894	-577.05505	1441.65192	260.05116	-693.50426	1552.86942	212.34346	-575.80521	1540.92560	122.39861	-751.89957	1381.37283	251.39290	-599.01970	1163.73055	252.66588	-612.00352	1082.71400	275.43150	-626.87881	1076.11122	212.67662	-399.10172	1107.82433	204.00291	-407.05509	1150.36392	187.74532	-421.31317	1134.71886	148.20601	-721.94099	1448.32840	-109.30148	-860.94528	1191.27556	-280.87582	-861.18774	1158.55957	-213.24463	-788.45566	1170.96916	-266.22976	-787.16446	920.62607	-260.71167	-789.10851	920.25818	-307.62564	-990.39497	905.00732	132.71577	-797.34314	918.30086	-184.37027	-899.03366	407.99217	29.13470	-985.63118	436.28551	30.52370	-905.27382	437.49672	-64.51810	-667.49664	462.52651	-91.72656	-758.99017	479.95270	-151.33842	-734.34021	451.40358	-24.59623	-928.43788	173.61835	-23.44607	-908.47862	185.27660	-88.26933	-990.79590	174.93607	-67.13601	-713.64799	194.62845	-121.91342	-793.42545	200.45567	-119.58896	-745.58311	202.91077	-57.42855	162.71423	1029.95018	271.17350	198.04794	1040.10895	117.35402	357.27882	1053.72658	136.16701	283.22638	1049.21547	304.19519	187.92038	1369.32373	195.98465	318.94928	1429.56192	203.12407	119.00344	1570.87524	135.67417	286.38243	1555.21454	97.93378	240.77696	1576.15036	253.26101	255.18101	1360.75455	40.68933	78.54786	1152.95937	1.32612	108.22927	1095.71304	-1.25716	80.38424	1132.49741	56.01588	-149.82434	1085.69702	41.98523	-133.93751	1053.40385	68.64470	-144.98072	1117.82402	68.13018	203.44406	1366.92886	356.37844	210.10700	1068.12698	421.58203	257.73012	1058.70903	407.57175	196.24397	1062.99774	369.83437	144.33224	843.27652	408.70743	105.75052	860.06180	388.05771	157.76158	847.86156	367.22771	335.54153	878.08151	38.25301	206.91563	879.46777	362.04128	233.00489	418.95203	139.51044	285.31305	464.80545	53.30280	193.92323	406.87031	34.11152	328.83991	450.78403	227.01263	301.94305	473.88447	343.07896	232.57893	414.89021	257.59504	336.38481	189.95977	58.95058	334.38728	189.24179	129.83871	408.86799	208.46050	93.29227	300.70330	164.27473	295.87261	349.89208	170.39215	345.42671	368.94913	175.91288	260.45033	-835.05417	925.93826	-309.81068 
142	45.850	-732.87666	1075.63919	-85.85833	-773.63747	1052.66594	119.59865	-956.75034	1115.17189	127.52094	-915.39337	1141.11160	-114.44787	-672.57156	1368.52966	97.34648	-735.40047	1483.69675	85.92507	-573.80329	1443.47885	265.23684	-689.52080	1555.38437	216.96959	-572.26555	1541.52802	126.56610	-753.47084	1383.73505	258.23410	-607.97722	1163.56102	265.03130	-620.34557	1081.38168	287.75915	-634.89719	1075.31662	224.64571	-408.68244	1115.18677	216.93626	-418.81878	1156.52359	198.72675	-431.60686	1138.01796	159.42033	-716.04950	1446.41266	-103.51678	-850.24086	1186.86867	-275.05814	-851.40244	1154.69200	-207.36452	-777.85576	1167.31583	-258.81657	-773.99376	916.90407	-251.36753	-775.43106	916.39679	-297.72400	-987.47726	904.38789	138.17597	-788.30666	916.27510	-174.25743	-897.26822	407.34665	33.02070	-983.40874	436.28815	33.53103	-902.01965	437.56512	-60.54690	-666.78627	460.81123	-72.71550	-757.21367	474.40208	-135.46605	-735.10902	449.54865	-7.00185	-928.20930	173.56031	-22.19703	-907.40807	185.54136	-86.61111	-990.12390	175.76290	-66.38736	-701.37459	190.83046	-96.75615	-780.87410	192.83072	-94.86493	-734.79233	199.50815	-33.05438	158.44256	1029.27574	265.83994	196.06236	1040.06401	112.69321	354.95636	1054.33815	134.08186	278.18661	1049.12148	301.07588	184.59082	1369.48990	191.56898	314.84156	1430.30945	201.31674	115.55613	1569.67651	129.47242	283.68185	1555.77118	94.71171	235.24754	1577.12036	249.15373	256.32433	1360.15823	36.73923	87.83764	1144.82811	-4.60285	119.19318	1088.55110	-8.71988	90.79927	1123.68187	49.77851	-138.32444	1077.40036	40.32092	-122.52061	1041.92513	62.55653	-131.30818	1106.03226	69.86467	196.77801	1366.64200	352.39384	204.65561	1067.74681	418.01708	252.64767	1058.94348	404.33861	191.35729	1062.42981	366.20781	142.51683	841.75858	404.79202	103.82270	858.07175	383.98258	155.89278	846.58813	363.21594	334.85786	879.41681	34.98385	202.39786	878.93860	355.27206	227.37009	419.94850	130.71249	280.91259	466.34136	45.23454	189.30477	409.16096	24.53173	330.27714	451.00121	225.85592	302.39349	474.25171	342.08687	234.74520	414.98428	257.55060	330.97355	191.35199	49.23141	327.89459	190.00498	120.30913	403.02544	209.41936	84.79501	301.20485	164.43018	295.62359	350.17265	170.60642	345.31567	369.49368	175.90567	260.25732	-821.35506	921.47827	-300.83750 
143	45.867	-725.29251	1074.83398	-76.03375	-770.50629	1053.35960	129.51198	-954.28513	1115.00099	132.82376	-907.57774	1139.53209	-108.46272	-670.73616	1369.02176	106.23163	-731.49223	1484.12811	90.56294	-570.66242	1444.60342	270.74665	-684.65935	1557.39761	221.38451	-567.94250	1541.33743	130.88771	-755.14999	1386.18286	264.79589	-617.53326	1164.25644	277.87830	-628.45634	1081.08864	300.57760	-642.70729	1075.43228	237.17628	-418.82690	1125.35385	230.23024	-431.37962	1165.14915	210.09069	-442.58663	1144.15993	171.92928	-709.10042	1443.92075	-97.66599	-839.04800	1182.19528	-269.14642	-841.21933	1150.66650	-201.25353	-766.84029	1163.36998	-251.36715	-761.95587	913.12469	-240.61039	-761.92101	912.27692	-287.85593	-984.28551	903.67790	143.70158	-779.22325	914.31137	-163.94068	-895.90591	406.49971	36.46872	-981.09337	436.17481	36.73066	-898.49350	437.58846	-56.44792	-666.12579	459.20280	-54.70048	-755.32623	470.28187	-119.19654	-735.83000	447.66163	9.85198	-927.52602	173.39211	-21.18168	-906.05888	185.87435	-85.33999	-989.15939	176.59164	-65.63966	-689.28276	187.65364	-71.63092	-768.92685	186.40400	-70.73606	-724.05396	196.86312	-8.47933	153.92839	1028.47046	260.58029	193.82805	1039.85939	107.80536	352.43279	1054.89426	131.86991	272.85212	1048.96423	297.80569	181.04172	1369.57245	186.79008	310.51437	1430.97290	199.14618	111.86917	1568.48434	123.10960	280.84417	1556.27884	91.40524	229.41362	1577.78305	244.78949	257.61684	1359.34174	32.34219	98.21667	1135.98938	-11.24661	131.61184	1080.90782	-16.49848	102.26313	1114.30992	42.74661	-125.30668	1067.29103	37.42329	-109.98278	1029.22241	54.99729	-116.33063	1092.09389	69.74051	189.46848	1366.47522	347.91641	198.84705	1067.55997	414.16656	246.96463	1059.32716	400.83775	186.02577	1061.85326	362.19078	139.83226	840.53093	400.68577	101.31550	856.27487	379.37492	153.68074	845.41817	358.90514	334.20998	880.98976	31.68114	198.51030	878.40378	349.90013	221.65707	420.94913	120.60199	277.04235	467.55501	36.58246	185.30771	411.74358	13.52777	332.44404	451.51474	223.90810	302.77563	474.70009	341.04923	235.35641	414.09462	255.72910	324.85176	192.31155	37.36710	320.55271	189.83997	108.35047	396.34926	209.22121	74.51588	301.55848	164.55780	295.23611	350.41008	170.69666	345.13130	369.88483	175.78793	260.14593	-807.97791	916.88019	-292.35935 
144	45.883	-717.78282	1073.44933	-65.37605	-767.33482	1054.00726	139.47008	-951.67023	1114.74503	138.07750	-899.30901	1137.62871	-102.41100	-667.27661	1368.70361	112.69709	-727.05833	1484.20517	95.22151	-565.88757	1444.96277	275.49110	-679.09676	1558.96408	225.93554	-562.79083	1540.19287	135.50401	-756.95419	1388.79532	271.11917	-626.95934	1166.59500	290.78268	-635.71777	1082.20955	313.99839	-649.63188	1076.54839	250.54756	-429.37759	1139.15894	243.39331	-444.67350	1177.08603	222.18063	-454.08024	1154.55612	184.75889	-701.26152	1440.88196	-91.69898	-827.36992	1177.31941	-263.04369	-830.56252	1146.30379	-195.06010	-755.37910	1159.07455	-243.77550	-749.36172	909.05792	-230.13605	-748.41484	907.83997	-277.67897	-981.02928	902.93404	149.42265	-769.86450	912.02805	-153.41314	-893.81485	405.86597	41.14620	-978.37555	436.01383	40.13017	-894.56985	437.54311	-52.09300	-665.36407	457.64225	-37.24283	-753.25554	466.52012	-102.88677	-736.40121	446.16161	26.35911	-926.52855	173.18783	-20.02224	-904.51965	186.17222	-83.87903	-987.98538	177.41695	-64.65256	-677.35962	185.30201	-47.14672	-757.14096	180.68064	-46.15399	-712.89078	194.86172	15.84151	149.55899	1027.46185	254.74058	191.68791	1039.55673	102.27295	349.75346	1055.37834	129.53385	267.31127	1048.80013	294.15966	177.19763	1369.56024	181.64722	305.89216	1431.54175	196.61167	108.22549	1567.35168	116.37156	277.71656	1556.59958	87.78984	223.21573	1578.15094	240.12678	258.91153	1358.29529	27.73174	109.95035	1126.57188	-18.36050	145.57681	1072.88193	-24.16033	115.11501	1104.67758	35.25484	-110.95435	1055.56091	32.83538	-96.07670	1015.57060	45.50410	-100.41830	1076.71944	66.79213	181.86035	1366.30173	342.88559	192.23106	1067.43164	410.06599	240.41788	1060.17822	397.15851	180.34807	1061.51268	357.94075	136.62025	839.49707	395.85213	98.17566	854.76677	374.20578	150.78779	844.45831	354.51080	333.64239	882.64534	28.36599	194.61031	877.66739	345.83363	216.07990	421.50951	109.75905	273.83856	468.72540	27.10512	181.69401	414.41353	1.86686	333.18409	451.18549	223.53512	302.89352	474.96563	339.83158	236.37674	413.48610	254.55887	317.67906	192.68360	23.69101	312.09404	189.09697	94.59478	388.80352	207.95486	62.22672	301.60187	164.61010	294.65317	350.67101	170.77433	344.78020	370.33871	175.70934	259.94093	-794.37195	911.80183	-282.75171 
